# xmcd
#
# Track frame offsets:
#	150
#	10254
#	19968
#	28800
#	38451
#	49403
#	58891
#	66890
#	77653
#	85733
#	95784
#	107041
#	117881
#	126234
#	136445
#	145343
#	153011
#	165101
#	176500
#	188415
#
# Disc length: 2751 seconds
#
# Revision: 0
# Processed by: cddbd v1.5.2PL0 Copyright (c) Steve Scherf et al.
# Submitted via: EZCDAudioConverter 3.1.0.1
#
DISCID=050abd14
DTITLE=Johnny Cash - Simply Johnny Cash
DYEAR=2014
DGENRE=Country and Folk
TTITLE0=Get Rythm
TTITLE1=The Story Of A Broken Heart
TTITLE2=Life Goes On
TTITLE3=Born To Lose
TTITLE4=I Love You Because
TTITLE5=New Mexico
TTITLE6=The Wreck Of The Old '97
TTITLE7=Fool's Hall Of Fame
TTITLE8=Sugartime
TTITLE9=Hey! Porter
TTITLE10=Don't Make Me Go
TTITLE11=Belshazar
TTITLE12=Country Boy
TTITLE13=I Could Never Be Ashamed Of You
TTITLE14=Remember Me (I'm The One Who Loves You)
TTITLE15=If The Good Lord's Willing
TTITLE16=Goodnight Irene
TTITLE17=Wide Open Road
TTITLE18=Sixteen Tons (Live)
TTITLE19=Orange Blossom Special (Live)
EXTD=
EXTT0=
EXTT1=
EXTT2=
EXTT3=
EXTT4=
EXTT5=
EXTT6=
EXTT7=
EXTT8=
EXTT9=
EXTT10=
EXTT11=
EXTT12=
EXTT13=
EXTT14=
EXTT15=
EXTT16=
EXTT17=
EXTT18=
EXTT19=
PLAYORDER=
